<svg xmlns="http://www.w3.org/2000/svg" width="26.723" height="26.723" viewBox="0 0 26.723 26.723"><g transform="translate(-6 -6)"><path d="M23.047,168.437a7.929,7.929,0,0,1,.019,11.2l-.019.019-3.507,3.507A7.933,7.933,0,0,1,8.32,171.944l1.937-1.937a.834.834,0,0,1,1.425.554,9.617,9.617,0,0,0,.506,2.752.84.84,0,0,1-.2.867l-.683.683a3.758,3.758,0,1,0,5.28,5.348l3.507-3.507a3.757,3.757,0,0,0,0-5.315,3.91,3.91,0,0,0-.54-.447.837.837,0,0,1-.363-.658,2.079,2.079,0,0,1,.611-1.556l1.1-1.1a.838.838,0,0,1,1.074-.09,7.961,7.961,0,0,1,1.071.9Z" transform="translate(0 -152.761)" fill="#fdffff"/><path d="M160.591,8.32a7.942,7.942,0,0,0-11.219,0l-3.507,3.507-.019.019a7.935,7.935,0,0,0,1.09,12.1.839.839,0,0,0,1.074-.09l1.1-1.1a2.079,2.079,0,0,0,.611-1.556.837.837,0,0,0-.363-.658,3.912,3.912,0,0,1-.54-.447,3.757,3.757,0,0,1,0-5.315l3.507-3.507a3.758,3.758,0,1,1,5.28,5.348l-.683.683a.84.84,0,0,0-.2.867,9.617,9.617,0,0,1,.506,2.752.834.834,0,0,0,1.425.554l1.937-1.937a7.942,7.942,0,0,0,0-11.219Z" transform="translate(-130.188 0)" fill="#fdffff"/></g></svg>